<?xml version="1.0" encoding="utf-8"?>
<!-- Generator: Adobe Illustrator 22.0.0, SVG Export Plug-In . SVG Version: 6.00 Build 0)  -->
<svg version="1.1" id="Capa_1" xmlns="http://www.w3.org/2000/svg" xmlns:xlink="http://www.w3.org/1999/xlink" x="0px" y="0px"
	 viewBox="0 0 231.3 502.9" style="enable-background:new 0 0 231.3 502.9;" xml:space="preserve">
<style type="text/css">
	.st0{fill:#FEFEFE;}
	.st1{fill:#FEF290;}
	.st2{fill:#ED9836;}
	.st3{fill:#D9061D;}
</style>
<g>
	<path class="st0" d="M227.6,503.4c-75.4,0-150.8,0-226.2,0c-1.2,0-1.4-0.3-1.4-1.4C0,335.2,0,168.3,0,1.5c0-1.2,0.3-1.4,1.4-1.4
		c76.3,0,152.5,0,228.8,0c1.2,0,1.4,0.3,1.4,1.4c0,93.1,0,186.1,0,279.2c-0.2-0.1-0.4-0.2-0.5-0.4c-1.9-3.6-4.1-7-6.2-10.5
		c-2.9-4.8-5.8-9.6-8.7-14.4c-0.1-0.2-0.1-0.4-0.2-0.6c-2.1-3.5-4.2-7-6.3-10.5c-0.4-0.6-0.4-1,0.4-1.4c2-1.1,4-2.4,6-3.5
		c1.1-0.6,1.1-1.1,0.4-2.1c-1.2-1.9-2.3-3.9-3.4-5.8c-0.5-0.8-0.4-1.1,0.4-1.6c3.5-2,6.9-4.2,10.3-6.2c0.8-0.4,0.6-0.8,0.3-1.2
		c-1.4-2.3-2.8-4.5-4.2-6.8c-4.7-7.9-9.3-15.8-13.9-23.7c-5.7-9.6-11.5-19.2-17.3-28.8c0.6-1.2,1.9-1.4,2.8-2
		c0.9-0.5,0.9-0.8,0.4-1.6c-2-3.3-3.9-6.6-5.9-9.9c-0.6-0.9-0.6-1.3,0.4-1.9c2.1-1.1,4.1-2.3,6.1-3.6c0.5-0.3,1-0.5,0.4-1.4
		c-1.4-1.9-2.5-4.1-3.7-6.1c-0.4-0.7-0.5-1.1,0.4-1.6c2-1.1,3.8-2.4,5.8-3.5c1.1-0.6,1.2-1.1,0.5-2.1c-1.2-1.9-2.3-4-3.6-5.9
		c-0.4-0.7-0.4-1,0.3-1.4c2.1-1.2,4.2-2.5,6.3-3.7c0.8-0.5,0.8-0.9,0.3-1.6c-1.3-2-2.4-4-3.6-6c-0.5-0.8-0.3-1.1,0.5-1.6
		c2.1-1.1,4-2.5,6-3.6c0.8-0.5,0.8-0.7,0.3-1.5c-1.4-2.1-2.6-4.2-3.9-6.4c-0.2-0.4-0.3-0.8,0.3-1.1c2.3-1.2,4.5-2.6,6.7-3.9
		c0.6-0.3,0.7-0.5,0.3-1.1c-3-4.9-5.9-9.8-8.8-14.6c-0.4-0.6-0.2-0.9,0.3-1.2c2-1.2,4-2.4,6.1-3.6c1.2-0.6,1.1-1.3,0.5-2.3
		c-4-6.6-7.9-13.2-11.9-19.8c-5.2-8.8-10.5-17.6-15.7-26.4c-0.4-0.7-0.7-0.8-1.4-0.4c-4.8,2.9-9.6,5.7-14.4,8.6
		c-0.7,0.4-0.9,0.4-1.4-0.3c-2.8-4.7-5.7-9.3-8.3-14c-0.7-1.2-1.1-1.1-2-0.5c-1.8,1.2-3.6,2.3-5.5,3.3c-0.6,0.3-1.2,0.9-1.8-0.2
		c-1.1-2.1-2.5-4.1-3.6-6.2c-0.5-0.9-0.8-0.9-1.5-0.4c-2,1.2-4,2.3-5.9,3.6c-1,0.6-1.5,0.4-2-0.6c-1.1-2-2.4-3.9-3.5-5.9
		c-0.4-0.6-0.7-0.7-1.3-0.3c-2,1.3-4.2,2.4-6.1,3.8c-1,0.7-1.3,0.2-1.7-0.4c-1.2-2-2.3-4-3.5-5.9c-0.4-0.7-0.6-1.3-1.7-0.5
		c-2,1.4-4.2,2.6-6.3,3.8c-0.5,0.3-0.9,0.4-1.2-0.3c-1.1-2.1-2.4-4-3.6-6.1c-0.5-1-1-1.2-2-0.6c-1.9,1.2-3.7,2.3-5.6,3.5
		c-0.8,0.5-1.3,0.7-1.9-0.5c-1.1-2.1-2.5-4-3.6-6.1c-0.5-0.9-0.9-0.7-1.4-0.3c-6,3.6-12.1,7.3-18.1,10.9c-0.8,0.5-1.4,0.4-1.8-0.4
		c-1-1.8-2.1-3.5-3.1-5.3c-1.1-1.9-1-1.8-2.9-0.7c-3.4,2.1-6.7,4.1-10.1,6.1c-5.1,3.1-10.3,6.2-15.4,9.2c-0.9,0.5-0.9,0.9-0.4,1.6
		c1.2,1.9,2.3,3.8,3.5,5.6c0.6,0.9,0.7,1.6-0.5,2.2c-1.9,0.9-3.6,2.1-5.4,3.1c-1.3,0.7-1.2,1.4-0.5,2.5c1.5,2.2,2.8,4.5,4.1,6.8
		c4.7,7.9,9.3,15.7,14,23.6c4.7,7.9,9.3,15.7,14.1,23.5c0.5,0.8,0.4,0.9-0.3,1.4c-6.1,3.6-12.1,7.2-18.2,10.8
		c-8.8,5.3-17.6,10.6-26.5,15.8c-3.3,2-6.6,3.9-9.9,5.9c-0.7,0.4-0.9,0.6-0.3,1.4c1.3,1.9,2.4,4,3.7,6c0.5,0.8,0.6,1.3-0.4,1.8
		c-2,1-3.8,2.3-5.8,3.4c-1.1,0.6-1,1-0.5,1.9c1.3,2,2.4,4,3.6,6c0.3,0.4,0.7,0.8-0.2,1.3c-2.1,1.1-4.1,2.6-6.2,3.6
		c-1.2,0.6-1.1,1.1-0.5,2c3.3,5.3,6.5,10.7,9.6,16.1c4.3,7.4,8.8,14.7,13.1,22c0.5,0.9,1,1.1,1.9,0.5c2-1.3,4.1-2.5,6.1-3.7
		c0.5-0.3,0.8-0.4,1.2,0.2c2.9,4.9,5.8,9.7,8.6,14.6c0.5,0.9,0.9,0.7,1.5,0.4c2.1-1.3,4.2-2.5,6.3-3.8c0.8-0.5,0.9-0.4,1.3,0.3
		c1.2,2.2,2.6,4.3,3.8,6.4c0.4,0.7,0.7,0.7,1.3,0.4c2.1-1.3,4.2-2.5,6.3-3.8c0.8-0.5,1.1-0.4,1.5,0.4c1.2,2.1,2.5,4.2,3.7,6.3
		c0.4,0.7,0.6,0.8,1.4,0.3c4.7-2.9,9.4-5.7,14.1-8.5c0.8-0.5,1.4-0.5,1.9,0.5c1.1,2.1,2.4,4,3.5,6.1c0.4,0.8,0.8,0.7,1.4,0.3
		c2.1-1.3,4.2-2.5,6.3-3.8c0.7-0.5,1.1-0.3,1.5,0.3c2,3.4,4,6.8,6,10.2c0.5,0.8,0.8,1,1.6,0.4c1-0.6,1.9-1.6,3.2-1.6
		c1.9,3.3,3.8,6.6,5.8,9.9c4.9,8.2,9.8,16.4,14.7,24.6c4.8,8.1,9.7,16.2,14.5,24.3c0.6,1.1,1.2,1.3,2.3,0.6c3.2-2,6.5-4,9.8-6
		c0.5-0.3,0.9-0.5,1.4,0.3c1.1,2.2,2.5,4.2,3.7,6.4c0.4,0.7,0.7,0.9,1.5,0.4c1.9-1.2,3.9-2.3,5.8-3.5c0.9-0.5,1.3-0.9,2,0.4
		c2.1,3.8,4.4,7.4,6.7,11.1c1.2,2.1,2.4,4.1,3.6,6.2c4,6.6,7.9,13.3,11.9,19.9c1,1.6,0.9,1.7-0.6,2.6c-5,2.9-10,5.7-14.8,8.7
		c-5.6,3.6-11.4,6.8-17.1,10.3c-5.8,3.5-11.6,7-17.4,10.4c-1.1,0.6-1.1,1.2-0.6,2.2c1.2,1.9,2.3,3.9,3.5,5.9c0.3,0.4,0.6,0.7,0,1.1
		c-3.3,2-6.6,4-9.9,5.9c-1.2,0.7-1.6,1.3-0.8,2.6c2.4,3.9,4.7,7.9,7,11.8c5.2,8.7,10.5,17.4,15.7,26.2c4.2,7.1,8.4,14.2,12.7,21.2
		c0.7,1.2,1.1,3.2,2.4,3.5c1.3,0.2,2.5-1.3,3.8-2c2.7,4.1,5.1,8.4,7.6,12.6c5.2,8.8,10.5,17.5,15.7,26.2c4.6,7.8,9.2,15.6,13.8,23.3
		C217.6,486.7,222.6,495,227.6,503.4z"/>
	<path class="st1" d="M175.5,416.2c-1.3,0.7-2.5,2.3-3.8,2c-1.3-0.2-1.7-2.2-2.4-3.5c-4.3-7-8.4-14.1-12.7-21.2
		c-5.2-8.7-10.5-17.4-15.7-26.2c-2.3-3.9-4.6-7.9-7-11.8c-0.8-1.3-0.5-1.9,0.8-2.6c3.3-1.9,6.6-3.9,9.9-5.9c0.6-0.4,0.3-0.7,0-1.1
		c-1.2-2-2.3-4-3.5-5.9c-0.6-1-0.5-1.5,0.6-2.2c5.8-3.4,11.6-6.9,17.4-10.4c5.7-3.5,11.5-6.7,17.1-10.3c4.8-3.1,9.9-5.9,14.8-8.7
		c1.6-0.9,1.6-1,0.6-2.6c-4-6.6-7.9-13.3-11.9-19.9c-1.2-2.1-2.4-4.1-3.6-6.2c0.1-0.7,0.7-0.8,1.2-1.1c13-7.8,26-15.5,39-23.3
		c2.9,4.8,5.8,9.6,8.7,14.4c2.1,3.5,4.3,6.9,6.2,10.5c0.1,0.2,0.3,0.3,0.5,0.4c0,9.1,0,18.3,0,27.4c-0.6-0.2-0.7-0.7-0.9-1.2
		c-1.4-2.4-2.9-4.7-4.2-7.1c-0.5-0.8-0.8-1.1-1.7-0.5c-3.3,2-6.6,4-9.9,5.9c-1,0.6-1.1,1-0.5,2c4.1,6.7,8.1,13.6,12.2,20.3
		c1.7,2.8,3.2,5.7,5.1,8.3c0,33.6,0,67.1,0,100.7c-0.4-0.1-0.5-0.4-0.7-0.7c-1.8-3.1-3.7-6.2-5.5-9.3c-3.3-5.6-6.7-11.2-10-16.7
		c-2.4-4-4.8-7.9-7.1-11.9c-0.4-0.6-0.7-0.8-1.3-0.4c-3.6,2.2-7.1,4.3-10.7,6.4c-0.7-0.1-1.2,0.4-1.7,0.7c-4,2.4-8.1,4.8-12.1,7.2
		C180.2,413.2,177.7,414.4,175.5,416.2z M218.4,286.5c-0.1-0.1-0.1-0.3-0.2-0.4c-2.1-3.6-4.3-7.2-6.4-10.8c-0.4-0.6-0.8-0.5-1.3-0.2
		c-3.5,2.1-7,4.2-10.5,6.3c-0.5,0.3-0.7,0.6-0.4,1.2c2.2,3.6,4.3,7.2,6.4,10.8c0.3,0.5,0.6,0.6,1.1,0.3c3.6-2.2,7.2-4.3,10.8-6.5
		C218.2,287,218.5,286.9,218.4,286.5z"/>
	<path class="st2" d="M175.5,416.2c2.1-1.8,4.6-3,7-4.4c4-2.4,8.1-4.8,12.1-7.2c0.5-0.3,1-0.7,1.7-0.7c-0.2,1,0.6,1.7,1,2.4
		c4.3,7.3,8.7,14.5,13,21.8c3,5.1,6.1,10.1,9.1,15.2c2.7,4.6,5.4,9.1,8.1,13.7c1.3,2.2,2.4,4.5,4.1,6.4c0,13,0,26,0,39
		c0,0.9-0.2,1.2-1.1,1.1c-1-0.1-1.9,0-2.9,0c-5-8.3-10-16.6-14.9-25c-4.6-7.8-9.2-15.6-13.8-23.3c-5.2-8.8-10.5-17.5-15.7-26.2
		C180.6,424.6,178.2,420.3,175.5,416.2z"/>
	<path class="st0" d="M231.6,463.3c-1.7-1.9-2.8-4.3-4.1-6.4c-2.8-4.5-5.4-9.1-8.1-13.7c-3-5.1-6-10.1-9.1-15.2
		c-4.3-7.2-8.7-14.5-13-21.8c-0.4-0.7-1.3-1.4-1-2.4c3.6-2.1,7.1-4.3,10.7-6.4c0.6-0.4,0.9-0.2,1.3,0.4c2.3,4,4.8,7.9,7.1,11.9
		c3.3,5.6,6.7,11.2,10,16.7c1.8,3.1,3.7,6.2,5.5,9.3c0.2,0.3,0.3,0.7,0.7,0.7C231.6,445.5,231.6,454.4,231.6,463.3z"/>
	<path class="st3" d="M231.6,335.8c-1.9-2.6-3.5-5.5-5.1-8.3c-4.1-6.8-8.1-13.6-12.2-20.3c-0.6-1-0.5-1.4,0.5-2
		c3.3-1.9,6.6-3.9,9.9-5.9c0.9-0.6,1.3-0.3,1.7,0.5c1.4,2.4,2.8,4.8,4.2,7.1c0.3,0.4,0.4,1,0.9,1.2
		C231.6,317.4,231.6,326.6,231.6,335.8z"/>
	<path d="M108.1,211.4c-1.3,0.1-2.2,1-3.2,1.6c-0.9,0.6-1.2,0.4-1.6-0.4c-1.9-3.4-4-6.8-6-10.2c-0.4-0.7-0.8-0.8-1.5-0.3
		c-2.1,1.3-4.2,2.5-6.3,3.8c-0.6,0.3-0.9,0.4-1.4-0.3c-1.1-2.1-2.4-4-3.5-6.1c-0.5-1-1-1-1.9-0.5c-4.7,2.8-9.4,5.6-14.1,8.5
		c-0.7,0.5-1,0.4-1.4-0.3c-1.2-2.1-2.5-4.2-3.7-6.3c-0.4-0.8-0.7-0.9-1.5-0.4c-2,1.3-4.2,2.5-6.3,3.8c-0.6,0.4-0.9,0.4-1.3-0.4
		c-1.2-2.2-2.6-4.3-3.8-6.4c-0.4-0.7-0.6-0.8-1.3-0.3c-2,1.4-4.2,2.6-6.3,3.8c-0.6,0.4-1,0.5-1.5-0.4c-2.8-4.9-5.8-9.7-8.6-14.6
		c-0.4-0.6-0.7-0.6-1.2-0.2c-2,1.2-4.1,2.4-6.1,3.7c-0.9,0.6-1.3,0.4-1.9-0.5c-4.4-7.3-8.8-14.6-13.1-22c-3.1-5.4-6.3-10.7-9.6-16.1
		c-0.5-0.9-0.6-1.4,0.5-2c2.1-1.1,4.1-2.5,6.2-3.6c0.8-0.4,0.4-0.8,0.2-1.3c-1.2-2-2.4-4.1-3.6-6c-0.6-0.9-0.6-1.4,0.5-1.9
		c2-1.1,3.8-2.4,5.8-3.4c1.1-0.6,0.9-1.1,0.4-1.8c-1.2-2-2.3-4.1-3.7-6c-0.5-0.8-0.3-1,0.3-1.4c3.3-1.9,6.6-3.9,9.9-5.9
		c8.8-5.3,17.6-10.6,26.5-15.8c6-3.6,12.1-7.2,18.2-10.8c0.7-0.4,0.8-0.6,0.3-1.4c-4.7-7.8-9.4-15.7-14.1-23.5
		c-4.7-7.8-9.3-15.7-14-23.6c-1.4-2.3-2.7-4.6-4.1-6.8c-0.7-1.1-0.8-1.8,0.5-2.5c1.8-1,3.6-2.2,5.4-3.1c1.2-0.6,1.1-1.2,0.5-2.2
		c-1.2-1.9-2.3-3.7-3.5-5.6c-0.5-0.7-0.5-1.1,0.4-1.6c5.2-3,10.3-6.1,15.4-9.2c3.4-2,6.8-4,10.1-6.1c1.8-1.1,1.8-1.2,2.9,0.7
		c1,1.8,2.1,3.5,3.1,5.3c0.5,0.8,1,0.9,1.8,0.4c6-3.7,12-7.3,18.1-10.9c0.5-0.3,0.9-0.5,1.4,0.3c1.1,2.1,2.5,4,3.6,6.1
		c0.6,1.2,1.1,1,1.9,0.5c1.9-1.2,3.8-2.3,5.6-3.5c0.9-0.6,1.5-0.4,2,0.6c1.1,2.1,2.4,4,3.6,6.1c0.4,0.7,0.7,0.6,1.2,0.3
		c2.1-1.3,4.3-2.4,6.3-3.8c1.1-0.8,1.3-0.2,1.7,0.5c1.1,2,2.3,4,3.5,5.9c0.4,0.7,0.7,1.1,1.7,0.4c2-1.4,4.1-2.5,6.1-3.8
		c0.6-0.4,1-0.3,1.3,0.3c1.2,2,2.4,3.9,3.5,5.9c0.5,1,1,1.2,2,0.6c1.9-1.2,3.9-2.4,5.9-3.6c0.7-0.4,1.1-0.5,1.5,0.4
		c1.1,2.1,2.5,4.1,3.6,6.2c0.6,1.1,1.3,0.5,1.8,0.2c1.9-1.1,3.7-2.2,5.5-3.3c0.9-0.6,1.3-0.7,2,0.5c2.7,4.7,5.6,9.4,8.3,14
		c0.4,0.7,0.6,0.7,1.4,0.3c4.8-2.9,9.6-5.7,14.4-8.6c0.7-0.4,1-0.3,1.4,0.4c5.2,8.8,10.4,17.6,15.7,26.4c3.9,6.6,7.9,13.2,11.9,19.8
		c0.6,1,0.7,1.6-0.5,2.3c-2.1,1.1-4,2.4-6.1,3.6c-0.6,0.3-0.7,0.6-0.3,1.2c2.9,4.9,5.8,9.8,8.8,14.6c0.4,0.6,0.2,0.8-0.3,1.1
		c-2.2,1.3-4.4,2.7-6.7,3.9c-0.7,0.4-0.6,0.7-0.3,1.1c1.3,2.1,2.5,4.3,3.9,6.4c0.5,0.8,0.5,1.1-0.3,1.5c-2,1.2-4,2.5-6,3.6
		c-0.9,0.5-1.1,0.8-0.5,1.6c1.2,2,2.4,4,3.6,6c0.5,0.7,0.5,1.2-0.3,1.6c-2.1,1.2-4.2,2.5-6.3,3.7c-0.7,0.4-0.7,0.7-0.3,1.4
		c1.2,1.9,2.3,4,3.6,5.9c0.6,1,0.5,1.5-0.5,2.1c-2,1.1-3.8,2.4-5.8,3.5c-0.9,0.5-0.8,0.9-0.4,1.6c1.2,2,2.4,4.2,3.7,6.1
		c0.6,0.9,0.1,1.1-0.4,1.4c-2,1.2-4,2.5-6.1,3.6c-1,0.6-1,0.9-0.4,1.9c2,3.2,3.9,6.6,5.9,9.9c0.5,0.8,0.4,1.1-0.4,1.6
		c-1,0.6-2.3,0.8-2.8,2c-0.9-0.3-1.5,0.5-2.1,0.8c-11.1,6.6-22.2,13.2-33.2,19.9c-1,0.6-1.4,0.4-1.9-0.5c-1.1-2-2.4-4-3.5-6
		c-0.4-0.7-0.7-0.8-1.4-0.4c-2,1.3-4.1,2.5-6.2,3.7c-0.9,0.5-0.7,0.9-0.3,1.5c1.2,1.9,2.3,3.9,3.5,5.8c0.6,1,0.6,1.4-0.5,2
		c-11.3,6.7-22.6,13.5-33.9,20.2C108.7,210.6,108.1,210.7,108.1,211.4z M173.9,138.6c-0.1-0.3-0.3-0.5-0.4-0.8
		c-3.6-6.1-7.3-12.1-10.8-18.2c-0.5-0.9-1-0.7-1.7-0.3c-5.9,3.5-11.8,7-17.7,10.6c-1.2,0.7-1.6,0.5-2.2-0.6c-1-1.9-2.3-3.7-3.3-5.6
		c-0.5-1-0.9-1-1.8-0.5c-4.6,2.8-9.2,5.5-13.8,8.3c-0.8,0.5-1.3,0.5-1.8-0.4c-1-1.9-2.3-3.8-3.3-5.7c-0.6-1.2-1.1-1.1-2.2-0.5
		c-13.9,8.3-27.8,16.6-41.7,24.9c-1.1,0.6-1.1,1.1-0.5,2.1c6.8,11.2,13.5,22.5,20.1,33.8c0.6,1,0.9,1,1.8,0.4
		c11.2-6.8,22.5-13.4,33.8-20.2c1-0.6,1.5-0.7,2.2,0.5c1,2,2.3,3.9,3.4,5.8c0.4,0.8,0.8,0.8,1.5,0.4c2-1.2,4-2.5,6.1-3.6
		c0.8-0.4,0.8-0.8,0.4-1.6c-1.2-2-2.3-4-3.6-5.9c-0.6-0.9-0.4-1.3,0.5-1.9c3.3-1.9,6.6-3.9,9.9-5.9c8-4.8,16-9.6,24-14.3
		C173.2,139.3,173.7,139.2,173.9,138.6z M179.5,157.2c-0.1-0.1-0.1-0.3-0.2-0.4c-1.4-2.3-2.8-4.7-4.1-7c-0.4-0.7-0.8-0.4-1.2-0.1
		c-8.9,5.3-17.8,10.6-26.6,15.9c-0.7,0.4-0.7,0.7-0.3,1.3c1.3,2.1,2.6,4.3,3.9,6.5c0.4,0.7,0.7,0.8,1.4,0.4
		c8.9-5.3,17.7-10.6,26.6-15.9C179.1,157.7,179.5,157.6,179.5,157.2z M107.4,200.4c0.3-0.1,0.5-0.3,0.8-0.4
		c8.7-5.2,17.4-10.4,26.1-15.6c1-0.6,1-1,0.4-1.8c-1.1-1.7-2.1-3.4-3.1-5.1c-1.1-1.8-1.1-1.8-3-0.7c-8.4,5-16.8,10-25.2,15
		c-1,0.6-1.1,1-0.5,2c1.3,1.9,2.4,3.9,3.6,5.9C106.8,199.9,106.9,200.4,107.4,200.4z"/>
	<path class="st2" d="M108.1,211.4c0-0.7,0.6-0.7,1-1c11.3-6.8,22.6-13.5,33.9-20.2c1.1-0.6,1.1-1.1,0.5-2c-1.2-1.9-2.3-3.9-3.5-5.8
		c-0.4-0.7-0.6-1.1,0.3-1.5c2.1-1.2,4.2-2.4,6.2-3.7c0.7-0.4,1-0.3,1.4,0.4c1.1,2,2.4,3.9,3.5,6c0.5,1,0.9,1.2,1.9,0.5
		c11.1-6.7,22.1-13.3,33.2-19.9c0.6-0.4,1.2-1.1,2.1-0.8c5.8,9.6,11.5,19.2,17.3,28.8c4.7,7.9,9.3,15.8,13.9,23.7
		c1.4,2.3,2.8,4.5,4.2,6.8c0.3,0.5,0.5,0.8-0.3,1.2c-3.5,2-6.9,4.2-10.3,6.2c-0.8,0.5-0.9,0.8-0.4,1.6c1.2,1.9,2.2,3.9,3.4,5.8
		c0.7,1,0.7,1.5-0.4,2.1c-2,1.1-4,2.4-6,3.5c-0.8,0.4-0.7,0.8-0.4,1.4c2.1,3.5,4.2,7,6.3,10.5c0.1,0.2,0.1,0.4,0.2,0.6
		c-13,7.8-26,15.5-39,23.3c-0.5,0.3-1.1,0.4-1.2,1.1c-2.2-3.7-4.6-7.3-6.7-11.1c-0.7-1.3-1.2-0.9-2-0.4c-1.9,1.2-3.9,2.2-5.8,3.5
		c-0.8,0.5-1.1,0.3-1.5-0.4c-1.2-2.1-2.6-4.2-3.7-6.4c-0.4-0.8-0.8-0.7-1.4-0.3c-3.3,2-6.5,4-9.8,6c-1.1,0.7-1.7,0.5-2.3-0.6
		c-4.8-8.1-9.6-16.2-14.5-24.3c-4.9-8.2-9.8-16.4-14.7-24.6C111.9,218,110,214.7,108.1,211.4z M145.8,237.5c0.2-0.1,0.5-0.3,0.8-0.4
		c1.9-1.1,3.8-2.3,5.7-3.4c13.3-7.9,26.6-15.8,39.9-23.8c2-1.2,2-0.7,0.7-2.9c-0.9-1.6-2-3.1-2.8-4.8c-0.7-1.4-1.3-1.3-2.5-0.6
		c-9.5,5.7-19.1,11.4-28.6,17.1c-5.7,3.4-11.4,6.8-17,10.2c-0.5,0.3-1.3,0.4-0.7,1.3c1.4,2.3,2.7,4.6,4.1,6.9
		C145.4,237.2,145.5,237.5,145.8,237.5z"/>
	<path class="st3" d="M218.4,286.5c0.1,0.4-0.2,0.5-0.5,0.7c-3.6,2.2-7.2,4.3-10.8,6.5c-0.5,0.3-0.8,0.2-1.1-0.3
		c-2.1-3.6-4.3-7.2-6.4-10.8c-0.4-0.6-0.2-0.9,0.4-1.2c3.5-2.1,7-4.2,10.5-6.3c0.5-0.3,0.9-0.5,1.3,0.2c2.1,3.6,4.3,7.2,6.4,10.8
		C218.3,286.2,218.4,286.4,218.4,286.5z"/>
	<path class="st2" d="M173.9,138.6c-0.2,0.6-0.7,0.6-1,0.9c-8,4.8-16,9.6-24,14.3c-3.3,2-6.6,4-9.9,5.9c-0.9,0.5-1.1,0.9-0.5,1.9
		c1.3,1.9,2.4,4,3.6,5.9c0.4,0.7,0.4,1.1-0.4,1.6c-2.1,1.2-4.1,2.4-6.1,3.6c-0.7,0.5-1.1,0.4-1.5-0.4c-1.1-2-2.4-3.8-3.4-5.8
		c-0.6-1.2-1.1-1.1-2.2-0.5c-11.2,6.8-22.5,13.5-33.8,20.2c-0.9,0.5-1.3,0.5-1.8-0.4c-6.7-11.3-13.4-22.6-20.1-33.8
		c-0.6-1-0.6-1.5,0.5-2.1c13.9-8.3,27.8-16.5,41.7-24.9c1.1-0.6,1.6-0.7,2.2,0.5c1,1.9,2.3,3.8,3.3,5.7c0.5,0.9,0.9,0.9,1.8,0.4
		c4.6-2.8,9.2-5.5,13.8-8.3c0.9-0.6,1.3-0.5,1.8,0.5c1,1.9,2.2,3.7,3.3,5.6c0.6,1.1,1,1.3,2.2,0.6c5.9-3.6,11.8-7.1,17.7-10.6
		c0.7-0.4,1.1-0.7,1.7,0.3c3.6,6.1,7.2,12.2,10.8,18.2C173.6,138.1,173.7,138.4,173.9,138.6z"/>
	<path class="st0" d="M179.5,157.2c-0.1,0.4-0.4,0.5-0.6,0.6c-8.9,5.3-17.8,10.6-26.6,15.9c-0.7,0.4-1,0.3-1.4-0.4
		c-1.2-2.2-2.5-4.3-3.9-6.5c-0.4-0.6-0.4-0.9,0.3-1.3c8.9-5.3,17.8-10.6,26.6-15.9c0.4-0.3,0.8-0.6,1.2,0.1c1.4,2.3,2.8,4.7,4.1,7
		C179.4,157,179.5,157.1,179.5,157.2z"/>
	<path class="st0" d="M107.4,200.4c-0.5,0-0.6-0.5-0.8-0.8c-1.2-2-2.3-4-3.6-5.9c-0.6-1-0.5-1.4,0.5-2c8.4-5,16.8-10,25.2-15
		c1.9-1.1,1.9-1.1,3,0.7c1,1.7,2,3.5,3.1,5.1c0.6,0.9,0.6,1.3-0.4,1.8c-8.7,5.2-17.4,10.4-26.1,15.6
		C107.9,200.2,107.7,200.3,107.4,200.4z"/>
	<path class="st0" d="M145.8,237.5c-0.4,0-0.5-0.2-0.6-0.5c-1.4-2.3-2.7-4.6-4.1-6.9c-0.6-0.9,0.2-1,0.7-1.3
		c5.7-3.4,11.4-6.8,17-10.2c9.6-5.7,19.1-11.4,28.6-17.1c1.2-0.7,1.9-0.8,2.5,0.6c0.8,1.7,1.9,3.2,2.8,4.8c1.3,2.2,1.3,1.7-0.7,2.9
		c-13.3,7.9-26.6,15.9-39.9,23.8c-1.9,1.1-3.8,2.3-5.7,3.4C146.3,237.2,146.1,237.4,145.8,237.5z"/>
</g>
</svg>
